<svg xmlns="http://www.w3.org/2000/svg" viewBox="0 0 32 32">
  <!-- Solid part of the D - left stroke and partial curves -->
  <path d="M6 4 L6 28 L14 28 Q16 28 17 27" fill="none" stroke="#4b5563" stroke-width="4" stroke-linecap="round" stroke-linejoin="round"/>
  <path d="M6 4 L14 4 Q16 4 17 5" fill="none" stroke="#4b5563" stroke-width="4" stroke-linecap="round" stroke-linejoin="round"/>
  
  <!-- Fragmenting right curve of D - larger pieces near the letter -->
  <rect x="18" y="6" width="3" height="3" fill="#4b5563" opacity="0.95"/>
  <rect x="20" y="10" width="2.8" height="2.8" fill="#4b5563" opacity="0.9"/>
  <rect x="21" y="14" width="2.5" height="2.5" fill="#6b7280" opacity="0.85"/>
  <rect x="21" y="18" width="2.5" height="2.5" fill="#6b7280" opacity="0.85"/>
  <rect x="19" y="22" width="2.8" height="2.8" fill="#4b5563" opacity="0.9"/>
  <rect x="17" y="25" width="3" height="3" fill="#4b5563" opacity="0.95"/>
  
  <!-- Medium distance particles -->
  <rect x="24" y="8" width="2" height="2" fill="#6b7280" opacity="0.7"/>
  <rect x="25" y="12" width="1.8" height="1.8" fill="#6b7280" opacity="0.6"/>
  <rect x="25" y="16" width="2" height="2" fill="#6b7280" opacity="0.55"/>
  <rect x="24" y="20" width="1.8" height="1.8" fill="#6b7280" opacity="0.6"/>
  <rect x="23" y="24" width="2" height="2" fill="#6b7280" opacity="0.65"/>
  
  <!-- Far particles - fading away -->
  <rect x="27" y="10" width="1.5" height="1.5" fill="#9ca3af" opacity="0.45"/>
  <rect x="28" y="14" width="1.3" height="1.3" fill="#9ca3af" opacity="0.35"/>
  <rect x="28" y="18" width="1.2" height="1.2" fill="#9ca3af" opacity="0.35"/>
  <rect x="27" y="22" width="1.4" height="1.4" fill="#9ca3af" opacity="0.4"/>
  
  <!-- Distant particles - almost gone -->
  <rect x="30" y="12" width="1" height="1" fill="#d1d5db" opacity="0.25"/>
  <rect x="30" y="16" width="0.8" height="0.8" fill="#d1d5db" opacity="0.2"/>
  <rect x="30" y="20" width="1" height="1" fill="#d1d5db" opacity="0.25"/>
</svg>
